<svg width="17" height="16" viewBox="0 0 17 16" fill="none" xmlns="http://www.w3.org/2000/svg">
<path fill-rule="evenodd" clip-rule="evenodd" d="M8.50002 0C8.6893 0 8.86235 0.106886 8.9471 0.276136L11.3021 4.9793L16.5713 5.73855C16.7605 5.76581 16.9176 5.8985 16.976 6.08044C17.0345 6.26238 16.9842 6.46174 16.8463 6.5941L13.0382 10.2505L13.9366 15.4143C13.9692 15.6015 13.8928 15.791 13.7396 15.9033C13.5863 16.0156 13.3826 16.0314 13.2139 15.9439L8.50002 13.5001L3.78614 15.9439C3.61744 16.0314 3.41375 16.0156 3.26048 15.9033C3.10721 15.791 3.03084 15.6015 3.06342 15.4143L3.96181 10.2505L0.153717 6.5941C0.0158658 6.46174 -0.0344796 6.26238 0.0239995 6.08044C0.0824786 5.8985 0.239552 5.76581 0.428707 5.73855L5.69797 4.9793L8.05293 0.276136C8.13768 0.106886 8.31073 0 8.50002 0ZM8.50002 1.61675L6.4751 5.66077C6.40178 5.8072 6.26141 5.90844 6.09932 5.9318L1.5852 6.58224L4.84631 9.71347C4.96629 9.82866 5.02112 9.99598 4.99262 10.1598L4.22154 14.5918L8.26989 12.493C8.41419 12.4182 8.58584 12.4182 8.73014 12.493L12.7785 14.5918L12.0074 10.1598C11.9789 9.99598 12.0337 9.82866 12.1537 9.71347L15.4148 6.58224L10.9007 5.9318C10.7386 5.90844 10.5982 5.8072 10.5249 5.66077L8.50002 1.61675Z" fill="#F9B959"/>
</svg>
